/* XPM */
static char *d5a5dce99239448980f7329a0864b5e9iwkuoj9gkyusnayN[] = {
/* columns rows colors chars-per-pixel */
"32 32 14 1 ",
"  c black",
". c gray19",
"X c gray22",
"o c gray25",
"O c #484848",
"+ c #555555",
"@ c #5D5D5D",
"# c DimGray",
"$ c #717171",
"% c #F61400",
"& c gray60",
"* c gray73",
"= c gray87",
"- c white",
/* pixels */
"                                ",
"O+O+ +O@     &---* +     +O+O ++",
"++oX    $#$  =--== + $$#   XO @O",
"++Oo  #+#$+ &=-==*& ##+++ + o XX",
"    #+ #oOo    =    $o+o #+O    ",
"OO $#+ #O+O+ %   % ++O+O $+O+ +O",
"+@ #+O+ #o# =&o-o&* O#o $#O++ OO",
"+  ++++O     &= =&      #$+++  o",
"  #  +o  o   &&=&* o  o  o+  +  ",
" $#+o   $o  o oo  $o  o$   $+++ ",
" #$O+o o$o  o -o* $o  o$o o+OO+ ",
" #$O+o o$o  o$   o$o  o$o o+OO+ ",
"       o$@o o$o  o$o  o$o       ",
" ##$+ @@$@o o$o  o$o  o$o  $#OO ",
" $+O+ oo$@o o$o  o$o  o$o  #$++ ",
" oo+o  o$o  o$o  o$o  o$o  OO++ ",
"       o$o  o$o  o$oooo$o       ",
" +OO+  o$o  o$o  o$o$$$$$  $##$ ",
" ++++ oo$oooo$oooo$o$$ $$o #$+O ",
" O++o @@$o@@o$o@@o$@$$ $$@ $oo+ ",
"      oo$oooo$oooo$o$$ $$o      ",
" ##$+  o$o  o$o  o$o$$$$$  #+OO ",
" $+O+  o$o  o$o  o$oooo$o  $+++ ",
" oo+o  o$o  o$o  o$o  o$o  OO++ ",
"       o$o  o$o  o$o  o$o       ",
" +OO+  o$o  o$o  o$o  o$o  $##$ ",
" ++++ oo$@o o$o  o$o  o$o  #$+O ",
" O++o @@$@o o$o  o$o  o$o  $oo+ ",
"      oo$@o.o$o..o$o..o$o       ",
" ##$+  o$oXXo$oXXo$oXXo$o  #+OO ",
" $+O+ oo$oooo$oooo$oooo$oo $+++ ",
" oo+o oo$oooo$oooo$oooo$oo OO++ "
};
