/* XPM */
static char *c5e616bd9b4e4441db0949bafa86a20b65cWuM9Zh407E7ZM[] = {
/* columns rows colors chars-per-pixel */
"32 32 5 1 ",
"  c #101010",
". c gray25",
"X c DimGray",
"o c #797979",
"O c #00AA00",
/* pixels */
"  OOoooo O oo.X.XOOX.   Ooo.oo  ",
"  OOX.oX. XX.oXX.OOX..  Oo.o..X.",
" ooO.O.X.Oooo.X.X.O.X.. OoXXXX.X",
" XoOoOX..OooOXXo.oOo.X. OoXXXX..",
" X.oOXX.X O.O.XXXXXX...OOoXX.OX.",
" ...O.X.. OOO...XOX....O.XX...O.",
"  .O.....  OO.X...O..  O ......O",
"  OO       O      O   OOO      O",
" ooOXooooXXO  XoOXX   OooooXoXO ",
"XXoOXXXX.X.. o.o.OXX OXo.OX.X.O ",
"ooXXXo.X..X. oX.oOX. Oo.XO.o.XO ",
"oXo.o.o.oO.. X.oXO.X o.o.oO.XOO ",
"oXX...X.XO.. oXX.O.. X.XX.O.X.O ",
"X.X.X.X.O... X.X.O.. ..X.OO.X.O ",
" X.X..OOO     ....O   ..XOO... O",
"       O                    O  O",
"OXoX   OoooXoOO   ooooooXOXXOOO ",
"oOo.X OO.XXo.OOX XoX.o.oOXXXXOO ",
"XOXX. OXX.o.X.O.Ooo.o.o.O.XX.O. ",
"ooO.X OX.o.X.XOXOo.X...O.O...O. ",
".XOo. OX..X.X.XO XX.o.XOXO.X.O. ",
"X.OO. O......X.O ..O.X.X.OO...X ",
"..OO   OX ..X.O   ..O.X..OO...  ",
"  O          OO     O       O   ",
"  OooooOOoXX  OXXXoooOXXo   XoX ",
" .oOo.oOOX.X  O.o.X.oOo.X. XO.o.",
" XoO.o.XO.X.X oO.o.oOOoX.X oOXoO",
" .O....XO..X. oOX.X.OOX.X. oXO.O",
" oOo.X.OX.... .XOX.o.XOX.. X.OOO",
" .O.X.XO.X... ..O.X...O... .X.OO",
"  OX.X.....    OOX.X...O.   ..O ",
"               OO      O      O "
};
