/* XPM */
static char *_62d4b5f30854682ca2ba30bbd380aa2ms0KEM3bKCP1tZGm[] = {
/* columns rows colors chars-per-pixel */
"32 32 7 1 ",
"  c black",
". c gray25",
"X c #484848",
"o c #555555",
"O c #5D5D5D",
"+ c DimGray",
"@ c #D60400",
/* pixels */
"  @@@@@@@@           @@@@       ",
"ooo@@@@+@o+ +OO+o+ +@@@@ @ooo OO",
"OOX@ @o.... O+o... .o.o@ ...o +o",
"Ooo@ +o.@oX +..o.. o.@o. X... ..",
"     @       @@@@@     @        ",
"oo Oo+O oXo+o@@@@o.ooXo OO+ .oOo",
"Oo +o.. .....@.@....oX. +o. ..oo",
"o. +o.. .X.o.@X o.oo.Xo ..o oo..",
"               @    @@   @@@@@  ",
"O +OO+X.. +OO+o+ Oo+O@oXo @@O@o+",
"o O+o.... O+o.+o +o.. oX. O@o@..",
". +..o.oo +..o+o +o..@.Xo +..o..",
" @@@@@    @@@              @    ",
"Oo@@@@+ XXo@o+ +o.. +OO+o+o OO+o",
"oOo@+@. +o.... ..o. O+o.... +o..",
"o+X .@o +oX@.. o.oX +..o..o ..o.",
"   @              @@@@@@@@      ",
" +OO+o+X .oO+o+XX X@+@@@@ Oo+ooo",
" O+o.... ..o..... +o..@X@ +o...o",
" +..o... oo.o.... +@o..o@ +o....",
"           @@@@       @         ",
"Oo +OO+o+.@@@@ @OO+o+ +OOX.. ooo",
"o. O+o.... oX@ O+o... O+o... ..o",
".o +..o..X @Xo +..o.. +...oo ...",
"  @@@@@      @         @@@@@@@@ ",
"Xo+@@.@+OO+o+ +oXoX Oo+O@@.@@@@o",
"....@.@O+o... ..o.X +o.. @o@..@.",
"X.o... +..o.. o.XoX +o.. ..o@. .",
"              @@@@@             ",
"Oo. Oo+O.. OOX..@@Xo Oo+OX. OOoo",
"+o. +o.... +o.@. oX. +o..o. +o.o",
"o.. +o.... ...oo @Xo +o...o ...."
};
