/* XPM */
static char *d01371b2e8674e91e5f50cf0a59e11f4hZu18ywDY44HWv57[] = {
/* columns rows colors chars-per-pixel */
"32 32 4 1 ",
"  c #101010",
". c gray25",
"X c DimGray",
"o c #797979",
/* pixels */
"  oooooo   oo.X.X.oX.    oo.oo  ",
"  ooX.oX. XX.oXX.X.X..  oo.o..X.",
" ooX.o.X. ooo.X.X.o.X.. ooXXXX.X",
" Xo.ooX.. oo.XXo.o.o.X. ooXXXX..",
" X.o.XX.X o.o.XXXXXX... ooXX..X.",
" ...X.X.. .X....X.X.... .XX.....",
"  .......  .X.X......    ...... ",
"                                ",
" oooXooooXX   XooXX   oooooXoX  ",
"XXoXXXXX.X.. o.o.XXX oXo.XX.X.X ",
"ooXXXo.X..X. oX.o.X. oo.X..o.X. ",
"oXo.o.o.o... X.oXo.X o.o.oo.X.X ",
"oXX...X.X... oXX.... X.XX.X.X.. ",
"X.X.X.X..... X.X.X.. ..X.XX.X.. ",
" X.X....X     .....   ..X.....  ",
"                                ",
" XoX   ooooXooX   ooooooX.XX..  ",
"ooo.X XX.XXo.o.X XoX.o.o.XXXXX. ",
"XXXX. oXX.o.X.o. oo.o.o...XX.X. ",
"ooo.X oX.o.X.X.X o.X...X.X..... ",
".X.o. oX..X.X.X. XX.o.X.X..X.X. ",
"X.X.. .......X.. ..X.X.X.X....X ",
"....   .X ..X..   ..X.X.. ....  ",
"                                ",
"  XoooooooXX   XXXooooXXo   XoX ",
" .o.o.oX.X.X  X.o.X.o.o.X. Xo.o.",
" XoX.o.Xo.X.X oo.o.o.ooX.X ooXo.",
" .X....X...X. o.X.X.X.X.X. oX...",
" o.o.X.XX.... .X.X.o.X.X.. X.o..",
" .X.X.X..X... ....X...X... .X...",
"  .X.X.....    ..X.X.....   ... ",
"                                "
};
