/* XPM */
static char *ca01dc1102ca4d65fd2e185c0a69a26f9X0tFB5HqELlfbD2[] = {
/* columns rows colors chars-per-pixel */
"32 32 4 1 ",
"  c gray22",
". c gray60",
"X c #AAAAAA",
"o c #CACACA",
/* pixels */
"XXX XXXo XXX XXXXX .  oo XXX. XX",
"... XXXX .XX .XXX.  ooX. XXX oX.",
"   oXXXXo ..o ... ooXXX oXX. .. ",
"oo .XXXX.   .o   o .... ..X o  o",
".Xo .XX. ooo   ooXo    o  . Xoo ",
" XXo .. oXXXo oXXXXo ooX o oXXXX",
" ...    XXXX oXXXXX oXX. Xo ..X.",
"o   ooo .X..  .XXXX ... oXXo  . ",
" ooo XXX .  oo ..XX    o XXXoo  ",
"XXXX XXX  ooXXo  X. oooX .XXX. o",
"XX.. .XXX .XXXXo .  XXXXo .X. oX",
"..  o .XX  .XXX.  oo....Xo . oXX",
"  ooXo .. o ... oo      ..o  ...",
"ooXXXXo   Xo    XXooo oo   oo   ",
" ...XX. ooX. o oXXXX oXXo oXXo o",
"o   .. oXXX oX .XXXX XXXXo XXX X",
"Xooo  oXX.. XXo XXX. XXX.  ... X",
".XXXo XX.  oXXX .X. oXXX oo    .",
" ...  .. oo .XX  .  .XX. XXo oo ",
"o   oo  oXXo ..oo oo .X oXX. XXo",
"Xoo .Xoo .XXo  .. XXo . ..X oXXX",
"XXXo XXXo ... o   .X.o    .  ...",
"... oXXX.    oXooo .  oooo  o   ",
"   o X..   ooXXXXX  ooXX.. oXoo ",
"oooX .  oo .XXXXX. oXXX.   .... ",
"XXX.  ooXX. .XXX.   XX. ooo    o",
"XX. ooXXX.   ... oo .. oXX. ooo.",
"..  .XXX. ooo   oXX   oXXX   X. ",
"  oo ..X oXXX ooXX. oo .X. o . o",
"ooX.   . XXXX ...X oXXo . oXo oX",
"XXX ooo oXXX o   . XXX.o oXXX XX",
"XXX XXX XXXX Xooo oX..  oXXXX XX"
};
