/* XPM */
static char *bd08a0d183b24b96ddf29370d08e58340z6WniSsoaVOIgGb[] = {
/* columns rows colors chars-per-pixel */
"32 32 31 1 ",
"  c #EFEFEF",
". c #407DAC",
"X c #325472",
"o c #396990",
"O c #2F2C28",
"+ c #1F201C",
"@ c #574C49",
"# c #131110",
"$ c white",
"% c #5B9FCD",
"& c #473F3B",
"* c #3A3A34",
"= c #2A445C",
"- c #346084",
"; c #3B739F",
": c #1D344A",
"> c #6CAED8",
", c #9D2D34",
"< c #4E8DBA",
"1 c #9C9C9D",
"2 c #B8B9BB",
"3 c #7A7475",
"4 c #84868A",
"5 c #822530",
"6 c #615B57",
"7 c #A9AAAC",
"8 c #6A6963",
"9 c #B93433",
"0 c #D4D5D6",
"q c #8CC6E7",
"w c #CC6E66",
/* pixels */
"&+O*&@O#+#+++++O#+++++#+#O@*O++&",
"*+O*+##@@++++O+O#O+++++@@#+**O+*",
"*+O*++#34&+OO++O#++OO+&43#+***+*",
"*+O*++O84O+#+OOO#OO+#+O48O++6*+*",
"O#O6++*3*O4###+O#O###4O*3*++6O+O",
"O#O6++#@+11&########&11+@#++&*+O",
"O#O6++O#+3716&+@#+&6178+#O++6O+O",
"O#O*+84O*310071 #320746*&18+6O+O",
"O#O*+@14#83100  *200184+22&+6O#O",
"*+O@+#674144700 *207447428#+6O+*",
"&+O6+++37144420 O77444113+#+&*+&",
"*+O6O+#&44444440O1444443&#+**O+*",
"*+O84###@4114430O1441148#+#3&OO*",
"*+O83&++67117140+1172176O#&3&O+*",
"O#O688#@64112020O7002746@#88&O#O",
"*+O6*@#@66688120*22486666#@&*O+*",
"*+O6+@+84&+##O87O3*##+&48O@+**+*",
"+#O6+OO811O##+@1+@###O118OO+6O#+",
"&+O*#O*8114OO837+38OO1048*O+6O+&",
"*+O&#OO881117310*13702238OO+6O+*",
"*+O6+O+@83888307*7388838@+O+6O+*",
"*+O6+O+**8888446O348888**+O#@*+*",
"*+O6+OO+#+@&31*6#*18&@+#+OO#**+*",
"*+O&#O+OO#+*3166+843*+#OO++#**+*",
"O#O*#O+OO##@3881+383&##OOOO#**+O",
"O#O*#OOOOOO13381O3331O*OOOO#&*+O",
"O#O@#+OOOO+88461O3488+OOOO++6O+O",
"O#+6+++OOO+#*361+33*#+O+++++@*+O",
"+#O&#++OOOO+6731+476+OOOO++#**#+",
"*+O*#++++O+O8461O848O+O++++#**+*",
"*+O6++++++++33+6#+33+++++++#**+*",
"*+O6+++O++++##O6+O#+O++O++++6O+*"
};
