/* XPM */
static char *_13d33f5e3a445d0eebe4cd930266cc7hwws2qxk7yIYL1Ij[] = {
/* columns rows colors chars-per-pixel */
"32 32 24 1 ",
"  c black",
". c #000005",
"X c #01000A",
"o c #01000C",
"O c #050122",
"+ c #060126",
"@ c #060227",
"# c #09022F",
"$ c #0A0231",
"% c #0C0338",
"& c #110443",
"* c #120447",
"= c #15054F",
"- c #160650",
"; c #180758",
": c #1D0863",
"> c #200A6B",
", c #260E7C",
"< c #2B1089",
"1 c #2C108B",
"2 c #31139A",
"3 c #3717AA",
"4 c #3E1ABB",
"5 c #3E1BBB",
/* pixels */
"44444444444444444444444444444444",
"44444444444444444444444444444444",
"44444444444444444444444444444444",
"44444444444444444444444444444444",
"444>4$&4444444444:<44<,,34444444",
"444                4<    4444444",
"444                3     <444444",
"444>4$&4444444444:1=     :444444",
"444444444444444455<   +   444444",
"444444444444444455    ,   344444",
"44&. .oooooooo+;5<   15   ,44444",
"44              3    11+  %44444",
"44              -          34444",
"44O  #111111112,           ,4444",
"44   ,444444443    X.ooo.  %4444",
"43   344444444=   <44444,   4444",
"4,   44444444<   =4444443   <444",
"4-  +44444444    34444444   :444",
"4               <44444444:  :444",
"4               444444444<  <444",
"4+             <4444444444444444",
"44444444444444432111111112344444",
"444                        44444",
"444                        44444",
"444              oooooooo+;44444",
"44444444444444444444444444444444",
"4443                    44444444",
"4443                    44444444",
"4443                    44444444",
"44444444          44444444444444",
"44444444          44444444444444",
"44444444          44444444444444"
};
