/* XPM */
static char *_664e847d4ab434de1d8b1d469ef74f6krB7sdLdB2XwFUvo[] = {
/* columns rows colors chars-per-pixel */
"32 32 25 1 ",
"  c black",
". c #000A06",
"X c #01120B",
"o c #01160E",
"O c #02271B",
"+ c #043123",
"@ c #043124",
"# c #053829",
"$ c #06402F",
"% c #0A503B",
"& c #0D5C45",
"* c #126F54",
"= c #157D5E",
"- c #1D9B76",
"; c #1E9E78",
": c #1EA07A",
"> c #21AB83",
", c #22AE85",
"< c #24B78C",
"1 c #25B98E",
"2 c #27C093",
"3 c #2CD4A2",
"4 c #2CD6A4",
"5 c #30E7B1",
"6 c #31E9B3",
/* pixels */
"66666666666666666666666666666666",
"66666666666666666666666666666666",
"66666666666666666666666666666666",
"66666666666666666666666666666666",
"66666666666666666666666666666666",
"66666666   6666*  36666666666666",
"66666666   >666+  26666666666666",
"66666666    666X  ,6666666666666",
"66666666    >66X  ,6666666666666",
"66666666     66X  ,6666666666666",
"66666666     >6X  ,6666666666666",
"66666663      6X  ,6666666666666",
"66666662      >X  ,6666666666666",
"6666666,       X  ,6666666666666",
"6666666,   >   .  ,6666666666666",
"6666666,   6      ,6666666666666",
"6666666,   6>     ,6666666666666",
"6666666,   66%    ,6666666666666",
"6666666,   66>    ,6666666666666",
"6666666:   666%   ;6666666666666",
"6666666,   666>   ,6666666666666",
"66666662   6666@  26666666666666",
"66666665334666666666666666666666",
"6666666666666661>-<2366666666666",
"66666666666666*+     *6666666666",
"6666666666666=         666666666",
"6666666666666#   %+    366666666",
"6666666666666o  &663   266666666",
"6666666666666X  ,666   266666666",
"6666666666666X  ,66=   366666666",
"6666666666666+   $O    666666666",
"6666666666666*        >666666666"
};
