/* XPM */
static char *_14c5d66a9044c539e7899975b729832wPQJRqKHk8lCe9HL[] = {
/* columns rows colors chars-per-pixel */
"32 32 39 1 ",
"  c black",
". c #151500",
"X c #262600",
"o c #2B2B00",
"O c #313100",
"+ c #383800",
"@ c #3E3E00",
"# c #474700",
"$ c #4F4F00",
"% c #505000",
"& c #585800",
"* c #595900",
"= c #636300",
"- c #6E6E00",
"; c #7A7A00",
": c #7C7C00",
"> c #898900",
", c #9A9A00",
"< c #A3A300",
"1 c #AAAA00",
"2 c #A9AA09",
"3 c #BCBC00",
"4 c #BCBC01",
"5 c #D2D200",
"6 c #D2D201",
"7 c #E1E100",
"8 c #E8E800",
"9 c #E8E802",
"0 c #FCFC00",
"q c yellow",
"w c #FFFF04",
"e c #FEFF0B",
"r c #FDFE0E",
"t c #FDFF14",
"y c #FCFE1C",
"u c #E1E72B",
"i c #FAFE29",
"p c #F8FE30",
"a c #F1FC43",
/* pixels */
"qqqqqqqqqqqqqqqqqqqqqqqqqqqqqqia",
"qqqqqqqqqqqqqqqqqqqqqqqqqqqqqqqq",
"qqqqqqqqqqqqqqqqqqqqqqqqqqqqqqqq",
"qqqqqqqqqqqqqqqqqqqqqqqqqqqqqqqq",
"qqqq81$X.o@>3qqqqqwqqqwqqqqqqqqq",
"qq8-          >7qqqqqqqqqqqqqqqq",
"qq             3qqqqqq7337qqqqqq",
"q3    $,3,:    3qqqqqq3  3<;;8qq",
"q>  +8qqqqqq7337qqqqqq3  3;  8qq",
"q:  @qqqqqqqqqqqqqqqqq7337;  8qq",
"q1   3qqqqqqqqqqqqqqqqqqqq888qqq",
"q8    3qqqqqqqqqq8;;<qqqqqqqqqqq",
"qq3    8qqqqqqqqq   ;qqqqqqqqqqq",
"qqq3    8qqqqqqq3   ;qqwqwqqqqqw",
"qqqq;    qqqqqqq    8qqqqqqq3  3",
"qqqqq;   3qqqqq3   3qqqqqqqq>  >",
"wqqqwq    8qqqq&   qqqqwqqqq=  =",
"qqqqqq3   1qqq8   1qqqqqqqqq=  =",
"qqqqqqqo  &qqq1   8qqqqqqqqq=  =",
"qqqqqqq#  #qqq$  $qqqqqqqqqq=  =",
"qqqqqqq#  #qqqX  ,qqqqqqqqqq@  :",
"qqqqqwq=  =qqq   6tttttttttt   2",
"qqqqqqq@  :qqq   8qqqqqqqqq8   8",
"qqqqqq3   1qqq   8qqqqqqqqq-   q",
"qqqq8:    8qqq   6qqqqqqqq3   -q",
"-O..     3qqqqX  ,qqqqqwry    up",
"        3qqqqq&   8qqqqq3    3qq",
"      &3qqqqqq3    %,,:@     qqq",
"-&6368wrewweeqq;            wwww",
"q0qqqqqqqqqqqqqq;         3qqqqq",
"qqqqqqqqqqqqqqqqq>=oXX@:18qqqqqq",
"qqqqqqqqqqqqqqqqqqqqqqweeeerrqqq"
};
