/* XPM */
static char *_0e3fe60d6744a4ac484f4b320eb6b98l4cc0J9cerBqcPJO[] = {
/* columns rows colors chars-per-pixel */
"32 32 60 1 ",
"  c #010000",
". c #040000",
"X c #090100",
"o c #0D0101",
"O c #120201",
"+ c #140201",
"@ c #150201",
"# c #190202",
"$ c #1C0202",
"% c #210302",
"& c #220303",
"* c #250403",
"= c #2A0504",
"- c #2E0604",
"; c #300605",
": c #340705",
"> c #370806",
", c #380806",
"< c #3D0A07",
"1 c #3F0B08",
"2 c #410B08",
"3 c #420C08",
"4 c #440C09",
"5 c #480E0A",
"6 c #4D0F0C",
"7 c #4F100C",
"8 c #50100C",
"9 c #51100D",
"0 c #56120E",
"q c #5D1410",
"w c #631612",
"e c #641612",
"r c #671813",
"t c #681813",
"y c #6B1914",
"u c #711B16",
"i c #7A1E18",
"p c #7B1E19",
"a c #84211B",
"s c #8B231D",
"d c #8C231D",
"f c #8D241E",
"g c #942620",
"h c #952620",
"j c #992721",
"k c #992821",
"l c #9E2922",
"z c #A32B24",
"x c #A42B24",
"c c #D20705",
"v c #D61D18",
"b c #E80201",
"n c #EE0906",
"m c red",
"M c #FC0403",
"N c #F60A07",
"B c #F80806",
"V c #F00F0C",
"C c #E71611",
"Z c #CA221C",
/* pixels */
"mmmmmmmmmmmmmmmmmmmmmmmmmmmmmmmm",
"mmmMNNNNNNNNNcnNNNNNNNNNNNNNNVmm",
"mVxxzikxxxxxs9ilxxxxxxzzxxxxxxmm",
"mNxxi>rkxxaxs9irjxxxxxh7y0yyxxmm",
"mNxxkqfzxy-axd3+6jxxxw& . .+yxmm",
"mNxxfqkxaOXyxy..wxxz4..O<555jxmm",
"mNzkw&ux1 .ix> >xxxy. O,2jkjghmm",
"mNzzrO<w-.X7y..yxxx4  .X+yzhrrbm",
"mNxxa*#&-6&;+ >xxxa;+0qeyxxdyybm",
"mNxxx0+Oexy+  yxxxa**954jxkeihMm",
"mNxxxx0,axxy$0xxxxa;$oX+yxi,wkNm",
"mNxxxxxaxxxzaxxxxxxai6wyxxxikzNm",
"mNxxxxxxxxxxxxxxxxxxxjxxxxxxxxNm",
"mNxxxxzhwayxxxxxxxxxxxxxxxxxxxNm",
"mNxxxxh2oO$yxxxxxxxxxjjxxxxxxxNm",
"mNxxxxi6&-<jldxxxxxi954jxxxxxxNm",
"mNxxxa*-yajli9dxxxpX..+yxxxxxxBm",
"mBxxx0+2kxxli9sxxx4 =tyxxxjyxxNm",
"mNxxi#X,00xxlsxxzi*$axxxxj6*yxNm",
"mNxx5     0xxxxxj1+0xxxxxxjyxxNm",
"mNxa;+:000xxxxxxa-$yy0xxxxxxxxNm",
"mNxa$-axxxxxxyxxa#&$X 0xxxhhxxNm",
"mNxy.;iaaa4xy*yxyX;;<9xxxhrrhxVm",
"mNx4 o***o 4j6jx0 9ajxxxxhryhxCm",
"mNxa+*****+axkxx0 -yyyy0xxhhxxvm",
"mNxxaaaaaaaxxxxx0  .XX. 0xxxxxvm",
"mNxxxxxxxxxxxxxxz0944349xxxxxxvm",
"mNxxxxxxxxxxxxxxxzxjjkkxxxxxxxvm",
"mNxxxxxxxxxxxxxxxxxxxxxxxxxxxxvm",
"mNxxxxxxxxxxxxxxxxxxxxxxxxxxxxZm",
"mmNNNNNNNNNNNNNNNNNNNNNNNNNNNNBm",
"mmmmmmmmmmmmmmmmmmmmmmmmmmmmmmmm"
};
